<svg width="255" height="47" viewBox="0 0 255 47" fill="none" xmlns="http://www.w3.org/2000/svg">
<g clip-path="url(#clip0_600_7279)">
<path d="M86.2048 5.95874L76.8789 25.118L67.5967 5.95874L62.3354 33.8043H66.5502L69.2971 18.3657L76.8789 34.2984L84.4995 18.3657L87.2463 33.8043H91.4611L86.2048 5.95874Z" fill="white"/>
<path d="M100.806 27.2135L94.8474 13.8989H90.3225L98.4469 32.0318L91.2139 46.7528H95.8163L100.612 36.9641L102.972 32.1458L111.949 13.8989H107.342L100.806 27.2135Z" fill="white"/>
<path d="M136.685 14.8446V14.7686C136.655 14.6309 136.635 14.4911 136.627 14.3504C136.627 14.1984 136.608 14.04 136.569 13.8753C136.54 13.8753 136.53 13.7992 136.53 13.7232C136.49 13.4783 136.425 13.2379 136.336 13.0057C135.643 10.779 134.162 8.8682 132.16 7.61716C130.325 6.50666 128.202 5.93908 126.047 5.98255H116.842V33.8708H120.979V25.6597H126.047C127.158 25.6653 128.266 25.5181 129.336 25.2226C130.328 24.9485 131.277 24.5458 132.16 24.0251C134.17 22.7762 135.653 20.8578 136.336 18.6223C136.382 18.5123 136.421 18.3996 136.453 18.2849L136.53 17.9428C136.53 17.8668 136.53 17.8145 136.569 17.7907L136.685 16.8784V16.8404C136.708 16.6883 136.727 16.5299 136.743 16.3652C136.743 16.2131 136.743 16.0516 136.743 15.89V15.814C136.743 15.6334 136.743 15.4719 136.743 15.3388C136.743 15.2058 136.709 14.9967 136.685 14.8446ZM131.986 18.1709C131.695 18.901 131.276 19.5751 130.746 20.1619C130.222 20.7388 129.593 21.2143 128.89 21.5637C128.165 21.9223 127.363 22.1048 126.55 22.0959H121.018V9.5939H126.55C127.363 9.58498 128.165 9.7675 128.89 10.1261C129.59 10.4656 130.219 10.9296 130.746 11.4946C131.276 12.0832 131.695 12.7588 131.986 13.4904C132.574 14.9924 132.574 16.6547 131.986 18.1566V18.1709Z" fill="white"/>
<path d="M152.866 15.2627C151.409 14.318 149.701 13.8143 147.954 13.8143C146.207 13.8143 144.499 14.318 143.041 15.2627V0.351562H139.079V33.9278H143.066V22.5234C143.06 21.8843 143.192 21.2512 143.453 20.6655C143.702 20.0943 144.055 19.5725 144.495 19.1259C144.942 18.6798 145.476 18.326 146.065 18.0853C146.669 17.8325 147.321 17.7031 147.978 17.7051C148.63 17.7021 149.275 17.8315 149.872 18.0853C150.458 18.3319 150.99 18.685 151.442 19.1259C151.893 19.5679 152.253 20.0905 152.503 20.6655C152.762 21.2519 152.894 21.8845 152.891 22.5234V33.9278H156.873V22.5234C156.887 21.0584 156.515 19.6146 155.792 18.3324C155.088 17.0898 154.083 16.0357 152.866 15.2627V15.2627Z" fill="white"/>
<path d="M176.6 16.8167C175.652 15.9036 174.54 15.1705 173.32 14.6546C172.056 14.1279 170.697 13.8564 169.323 13.8564C167.95 13.8564 166.591 14.1279 165.327 14.6546C162.858 15.6853 160.897 17.6204 159.862 20.0479C159.322 21.2951 159.047 22.637 159.053 23.9919C159.044 25.3429 159.321 26.681 159.867 27.9216C160.916 30.3362 162.876 32.26 165.336 33.2911C167.693 34.2621 170.333 34.345 172.749 33.524C173.792 33.1563 174.772 32.6356 175.655 31.9796V33.8281H179.642V23.9871C179.643 22.6549 179.376 21.3357 178.855 20.1052C178.335 18.8747 177.572 17.7572 176.61 16.8167H176.6ZM175.147 26.3725C174.821 27.1044 174.362 27.7712 173.79 28.3398C173.219 28.9045 172.543 29.3576 171.799 29.675C171.024 30.004 170.188 30.1738 169.343 30.1738C168.498 30.1738 167.662 30.004 166.887 29.675C165.379 29.0254 164.182 27.8356 163.539 26.3488C163.211 25.5984 163.046 24.7893 163.055 23.9729C163.043 23.1408 163.208 22.3155 163.539 21.5495C163.861 20.8157 164.321 20.1482 164.895 19.5822C165.47 19.0206 166.145 18.5679 166.887 18.247C167.663 17.921 168.498 17.7529 169.343 17.7529C170.187 17.7529 171.023 17.921 171.799 18.247C173.306 18.8966 174.504 20.0865 175.147 21.5732C175.478 22.3392 175.643 23.1646 175.631 23.9966C175.64 24.813 175.475 25.6222 175.147 26.3725V26.3725Z" fill="white"/>
<path d="M195.629 15.296C194.926 14.8311 194.157 14.4694 193.348 14.2221C191.659 13.7088 189.852 13.7088 188.164 14.2221C187.355 14.4711 186.586 14.8328 185.882 15.296V13.8705H181.9V33.828H185.882V22.5473C185.879 21.9083 186.011 21.2757 186.27 20.6893C186.765 19.5445 187.694 18.6331 188.862 18.1471C189.531 17.8672 190.257 17.739 190.984 17.7719C191.711 17.8048 192.421 17.998 193.062 18.3372C193.751 18.6989 194.342 19.219 194.782 19.853L195.629 19.1688L197.877 17.4201C197.269 16.5813 196.507 15.8611 195.629 15.296Z" fill="white"/>
<path d="M227.962 15.1866C226.865 14.4784 225.622 14.0158 224.321 13.8318C223.021 13.6479 221.695 13.747 220.439 14.1222C219.611 14.3705 218.822 14.7287 218.094 15.1866C217.341 15.6906 216.671 16.3043 216.108 17.0066C215.541 16.2979 214.862 15.6834 214.097 15.1866C213 14.4784 211.756 14.0158 210.456 13.8318C209.156 13.6479 207.83 13.747 206.573 14.1222C205.748 14.3715 204.961 14.7296 204.233 15.1866V13.7611H200.246V33.9087H204.233V22.5044C204.228 21.8652 204.36 21.2322 204.621 20.6464C205.126 19.4792 206.077 18.5528 207.271 18.0662C207.883 17.8103 208.543 17.6809 209.209 17.6861C209.86 17.6831 210.505 17.8125 211.103 18.0662C212.284 18.5652 213.225 19.4884 213.734 20.6464C213.992 21.2328 214.124 21.8654 214.121 22.5044V33.9087H218.104V22.5044C218.1 21.8654 218.232 21.2328 218.491 20.6464C218.743 20.0713 219.105 19.5487 219.557 19.1069C220.011 18.6625 220.549 18.309 221.141 18.0662C221.754 17.8103 222.413 17.6809 223.079 17.6861C223.73 17.6836 224.375 17.813 224.973 18.0662C225.557 18.3128 226.088 18.666 226.538 19.1069C226.989 19.55 227.35 20.0722 227.604 20.6464C227.862 21.2328 227.994 21.8654 227.991 22.5044V33.9087H231.974V22.5044C231.986 21.0389 231.613 19.5951 230.888 18.3133C230.192 17.0497 229.186 15.9754 227.962 15.1866V15.1866Z" fill="white"/>
<path d="M254.186 20.0479C253.667 18.8375 252.91 17.7395 251.958 16.8167C251.011 15.9025 249.898 15.1694 248.678 14.6546C247.414 14.1279 246.054 13.8564 244.681 13.8564C243.308 13.8564 241.948 14.1279 240.684 14.6546C238.217 15.6835 236.258 17.6196 235.229 20.0479C234.689 21.2951 234.414 22.637 234.42 23.9919C234.411 25.3429 234.688 26.6811 235.234 27.9216C236.283 30.3362 238.243 32.26 240.704 33.2912C241.97 33.822 243.333 34.0921 244.71 34.0847C245.865 34.0931 247.013 33.9034 248.101 33.524C249.144 33.1569 250.125 32.6362 251.008 31.9797V33.8281H254.995V23.9871C255.003 22.6336 254.727 21.293 254.186 20.0479V20.0479ZM250.504 26.3725C250.179 27.1044 249.719 27.7712 249.148 28.3398C248.576 28.9045 247.9 29.3576 247.157 29.675C246.381 30.0041 245.545 30.1738 244.7 30.1738C243.855 30.1738 243.02 30.0041 242.244 29.675C241.5 29.3576 240.825 28.9045 240.253 28.3398C239.68 27.7725 239.22 27.1053 238.897 26.3725C238.569 25.6222 238.404 24.813 238.412 23.9966C238.4 23.1646 238.565 22.3393 238.897 21.5732C239.539 20.0865 240.737 18.8966 242.244 18.247C243.02 17.921 243.856 17.7529 244.7 17.7529C245.545 17.7529 246.38 17.921 247.157 18.247C248.664 18.8966 249.861 20.0865 250.504 21.5732C250.836 22.3392 251.001 23.1646 250.989 23.9966C250.997 24.813 250.832 25.6222 250.504 26.3725V26.3725Z" fill="white"/>
<path d="M41.3922 10.7153V12.8394H39.2751V15.1678H41.3922V17.2966H43.7661V15.1678H45.9365V12.8394H43.7661V10.7153H41.3922Z" fill="white"/>
<path d="M22.1495 25.4507C23.7167 26.4986 25.4856 27.2214 27.3477 27.5747L30.2545 31.8513L32.9239 27.5462C36.5731 26.8407 39.7926 24.7548 41.8864 21.7395L30.1334 13.918L41.9978 6.23916C40.8396 4.52245 39.3083 3.0786 37.5137 2.01129C35.7191 0.943991 33.7058 0.279703 31.6184 0.0661742C29.531 -0.147354 27.4213 0.0951698 25.4408 0.776304C23.4603 1.45744 21.6581 2.56029 20.1637 4.00566C18.6694 5.45103 17.5198 7.20307 16.7977 9.13591C16.0757 11.0688 15.7989 13.1344 15.9874 15.1846C16.1758 17.2349 16.8248 19.2187 17.8877 20.9937C18.9506 22.7687 20.4011 24.2908 22.135 25.4507H22.1495Z" fill="white"/>
<path d="M17.1935 39.5635C16.4432 39.5635 15.7098 39.7817 15.086 40.1905C14.4622 40.5993 13.976 41.1804 13.6889 41.8603C13.4018 42.5401 13.3267 43.2883 13.473 44.01C13.6194 44.7317 13.9807 45.3947 14.5112 45.915C15.0417 46.4354 15.7176 46.7897 16.4534 46.9333C17.1893 47.0768 17.952 47.0032 18.6451 46.7216C19.3382 46.44 19.9307 45.9631 20.3475 45.3512C20.7643 44.7394 20.9868 44.02 20.9868 43.2841C20.9868 42.2974 20.5871 41.351 19.8757 40.6532C19.1644 39.9555 18.1995 39.5635 17.1935 39.5635V39.5635Z" fill="white"/>
<path d="M40.9369 39.5635C40.1866 39.5635 39.4532 39.7817 38.8294 40.1905C38.2056 40.5993 37.7194 41.1804 37.4323 41.8603C37.1452 42.5401 37.0701 43.2883 37.2164 44.01C37.3628 44.7317 37.7241 45.3947 38.2546 45.915C38.7851 46.4354 39.461 46.7897 40.1968 46.9333C40.9327 47.0768 41.6954 47.0032 42.3885 46.7216C43.0817 46.44 43.6741 45.9631 44.0909 45.3512C44.5077 44.7394 44.7302 44.02 44.7302 43.2841C44.7302 42.2974 44.3305 41.351 43.6191 40.6532C42.9078 39.9555 41.9429 39.5635 40.9369 39.5635V39.5635Z" fill="white"/>
<path d="M14.3255 32.5639L8.92859 1.36842L0.300365 0.6604L0 4.19574L5.83289 4.67091L11.2734 36.1088H46.2368V32.5639H14.3255Z" fill="white"/>
</g>
<defs>
<clipPath id="clip0_600_7279">
<rect width="255" height="47" fill="white"/>
</clipPath>
</defs>
</svg>